<?xml version="1.0" standalone="no"?>
<!DOCTYPE svg PUBLIC "-//W3C//DTD SVG 20010904//EN"
 "http://www.w3.org/TR/2001/REC-SVG-20010904/DTD/svg10.dtd">
<svg version="1.0" xmlns="http://www.w3.org/2000/svg"
 width="1006.000000pt" height="1006.000000pt" viewBox="0 0 1006.000000 1006.000000"
 preserveAspectRatio="xMidYMid meet">
<metadata>
Created by potrace 1.14, written by Peter Selinger 2001-2017
</metadata>
<g transform="translate(0.000000,1006.000000) scale(0.100000,-0.100000)"
fill="#000000" stroke="none">
<path d="M4769 10056 c-2 -2 -49 -6 -104 -10 -55 -4 -115 -9 -135 -11 -31 -4
-93 -11 -170 -20 -14 -1 -44 -6 -68 -10 -23 -4 -52 -8 -65 -10 -12 -1 -38 -5
-57 -9 -19 -3 -46 -8 -60 -10 -233 -40 -626 -152 -882 -250 -301 -115 -639
-286 -908 -459 -101 -64 -318 -217 -341 -239 -8 -7 -25 -21 -39 -30 -27 -17
-208 -168 -280 -233 -78 -70 -343 -338 -400 -404 -30 -35 -60 -69 -65 -75 -6
-6 -44 -54 -86 -106 -157 -196 -308 -416 -432 -630 -82 -141 -260 -495 -273
-545 -1 -5 -19 -47 -38 -93 -56 -129 -164 -455 -200 -602 -2 -8 -11 -42 -20
-75 -8 -33 -18 -75 -21 -94 -3 -19 -8 -37 -10 -41 -4 -7 -14 -55 -20 -95 -1
-11 -9 -58 -18 -105 -9 -47 -19 -107 -23 -135 -3 -27 -8 -59 -10 -70 -2 -11
-7 -47 -10 -80 -3 -33 -7 -71 -9 -84 -20 -121 -27 -705 -12 -876 16 -172 16
-171 33 -297 5 -44 26 -171 43 -268 55 -316 199 -777 341 -1095 63 -141 194
-395 266 -515 69 -117 182 -294 206 -325 4 -5 49 -66 100 -135 51 -69 100
-134 109 -145 288 -345 567 -616 871 -845 51 -38 98 -74 103 -78 14 -11 253
-171 295 -198 228 -143 560 -308 825 -411 139 -54 479 -165 544 -178 9 -2 43
-10 76 -18 67 -18 63 -17 230 -51 66 -13 139 -26 162 -29 22 -4 52 -8 65 -11
24 -5 72 -11 168 -22 30 -3 66 -7 78 -9 159 -27 825 -26 1007 0 17 3 51 7 78
10 118 13 143 16 222 30 225 39 382 74 590 134 187 53 434 139 503 175 18 9
33 16 34 15 12 -4 168 68 358 165 85 44 165 84 177 90 13 6 23 14 23 19 0 4 5
7 10 7 24 0 331 197 491 316 108 80 283 223 379 309 130 117 373 370 487 506
68 82 75 92 156 199 43 58 84 112 90 120 17 22 117 173 170 256 99 156 261
463 332 629 116 272 256 687 290 864 2 10 13 63 25 117 12 55 24 109 26 122
16 89 25 143 29 182 3 25 8 57 10 71 3 14 8 52 11 85 3 32 8 73 10 89 25 219
25 838 -1 999 -2 17 -7 52 -10 79 -12 114 -17 145 -25 192 -5 28 -12 66 -15
85 -3 19 -10 60 -16 90 -6 30 -13 68 -15 84 -3 16 -25 106 -50 200 -24 94 -46
180 -49 190 -16 66 -134 397 -181 508 -86 204 -209 452 -312 623 -96 161 -274
429 -302 455 -3 3 -19 23 -35 45 -41 55 -42 57 -141 175 -273 327 -614 641
-949 876 -123 86 -166 114 -174 114 -5 0 -11 4 -13 9 -13 34 -729 411 -782
411 -6 0 -16 4 -22 9 -15 15 -299 116 -459 165 -218 65 -453 121 -595 141 -25
4 -63 10 -85 15 -22 5 -71 12 -110 16 -38 4 -72 8 -75 9 -3 1 -45 5 -95 9 -49
5 -99 11 -110 13 -23 5 -641 14 -646 9z"/>
</g>
</svg>
