<?xml version="1.0" standalone="no"?>
<!DOCTYPE svg PUBLIC "-//W3C//DTD SVG 20010904//EN"
 "http://www.w3.org/TR/2001/REC-SVG-20010904/DTD/svg10.dtd">
<svg version="1.0" xmlns="http://www.w3.org/2000/svg"
 width="512.000000pt" height="512.000000pt" viewBox="0 0 512.000000 512.000000"
 preserveAspectRatio="xMidYMid meet">
<metadata>
Created by potrace 1.14, written by Peter Selinger 2001-2017
</metadata>
<g transform="translate(0.000000,512.000000) scale(0.100000,-0.100000)"
fill="#000000" stroke="none">
<path d="M3895 2944 c-324 -283 -591 -517 -592 -521 -2 -5 21 -35 50 -67 l53
-59 589 512 c325 281 594 518 599 525 7 10 -5 30 -40 70 -27 31 -53 55 -59 55
-5 0 -275 -232 -600 -515z"/>
<path d="M1571 3372 c-28 -42 -277 -426 -554 -852 l-504 -775 63 -42 c35 -24
67 -43 72 -43 5 0 249 370 542 823 294 452 542 834 552 848 l18 26 -70 47 -69
46 -50 -78z"/>
<path d="M587 3394 l-67 -47 16 -26 c26 -39 345 -495 353 -504 11 -11 142 83
134 97 -11 17 -355 510 -363 519 -3 4 -36 -14 -73 -39z"/>
<path d="M1890 3360 l0 -80 655 0 655 0 0 80 0 80 -655 0 -655 0 0 -80z"/>
<path d="M1890 2150 l0 -480 655 0 655 0 0 80 0 80 -570 0 -570 0 0 320 0 320
310 0 310 0 0 80 0 80 -395 0 -395 0 0 -480z"/>
<path d="M3896 2293 c-33 -27 -55 -52 -52 -59 6 -16 463 -561 477 -570 11 -6
124 82 124 97 0 11 -476 579 -485 579 -4 0 -33 -21 -64 -47z"/>
</g>
</svg>
